<svg width="104" height="33" viewBox="0 0 104 33" fill="none" xmlns="http://www.w3.org/2000/svg">
<rect x="0.356005" y="0.356005" width="102.45" height="31.5379" rx="15.7689" fill="#080808" stroke="#FF4E4E" stroke-width="0.71201"/>
<path d="M32.734 19.823L30.674 13.223H31.194L33.054 19.363L34.774 13.223H35.354L37.084 19.373L38.944 13.223H39.444L37.384 19.823H36.764L35.434 15.193L35.064 13.763H35.054L34.684 15.193L33.354 19.823H32.734ZM43.3084 16.533C43.3084 16.0997 43.1917 15.763 42.9584 15.523C42.7251 15.283 42.3917 15.163 41.9584 15.163C41.5784 15.163 41.2517 15.2463 40.9784 15.413C40.7051 15.573 40.5017 15.843 40.3684 16.223L39.9584 15.963C40.1051 15.5697 40.3484 15.2663 40.6884 15.053C41.0351 14.833 41.4617 14.723 41.9684 14.723C42.3351 14.723 42.6551 14.7897 42.9284 14.923C43.2084 15.0497 43.4251 15.2397 43.5784 15.493C43.7317 15.7463 43.8084 16.063 43.8084 16.443V18.943C43.8084 19.2963 43.9684 19.473 44.2884 19.473C44.4284 19.473 44.5484 19.4497 44.6484 19.403L44.6184 19.803C44.5051 19.863 44.3584 19.893 44.1784 19.893C44.0251 19.893 43.8817 19.863 43.7484 19.803C43.6151 19.743 43.5051 19.643 43.4184 19.503C43.3384 19.363 43.2984 19.173 43.2984 18.933V18.663L43.4384 18.653C43.3784 18.9397 43.2451 19.1797 43.0384 19.373C42.8384 19.5597 42.6051 19.6997 42.3384 19.793C42.0717 19.8797 41.8051 19.923 41.5384 19.923C41.2251 19.923 40.9451 19.873 40.6984 19.773C40.4517 19.673 40.2584 19.5297 40.1184 19.343C39.9784 19.1497 39.9084 18.913 39.9084 18.633C39.9084 18.2597 40.0317 17.9597 40.2784 17.733C40.5317 17.4997 40.8851 17.3397 41.3384 17.253L43.4084 16.843V17.263L41.5884 17.623C41.1951 17.703 40.9017 17.8197 40.7084 17.973C40.5151 18.1263 40.4184 18.3363 40.4184 18.603C40.4184 18.8763 40.5217 19.093 40.7284 19.253C40.9351 19.4063 41.2284 19.483 41.6084 19.483C41.8017 19.483 41.9984 19.4563 42.1984 19.403C42.3984 19.3497 42.5817 19.2663 42.7484 19.153C42.9217 19.033 43.0584 18.8863 43.1584 18.713C43.2584 18.533 43.3084 18.3163 43.3084 18.063V16.533ZM46.3616 13.433V18.503C46.3616 18.8163 46.4349 19.0563 46.5816 19.223C46.7349 19.383 46.9549 19.463 47.2416 19.463C47.4283 19.463 47.5916 19.433 47.7316 19.373C47.8783 19.3063 48.0083 19.213 48.1216 19.093L48.3116 19.503C48.1849 19.6297 48.0249 19.733 47.8316 19.813C47.6383 19.8863 47.4216 19.923 47.1816 19.923C46.9216 19.923 46.6916 19.8763 46.4916 19.783C46.2916 19.683 46.1349 19.533 46.0216 19.333C45.9149 19.133 45.8616 18.8797 45.8616 18.573V13.573L46.3616 13.433ZM48.2316 14.823V15.253H44.8616V14.823H48.2316ZM51.3211 14.723C51.6611 14.723 51.9645 14.7763 52.2311 14.883C52.4978 14.9897 52.7245 15.143 52.9111 15.343C53.0978 15.543 53.2411 15.7863 53.3411 16.073L52.8711 16.293C52.7645 15.933 52.5778 15.6563 52.3111 15.463C52.0511 15.263 51.7178 15.163 51.3111 15.163C50.9445 15.163 50.6211 15.2497 50.3411 15.423C50.0611 15.5897 49.8445 15.8363 49.6911 16.163C49.5378 16.483 49.4611 16.8697 49.4611 17.323C49.4611 17.7697 49.5378 18.1563 49.6911 18.483C49.8445 18.8097 50.0578 19.0597 50.3311 19.233C50.6045 19.3997 50.9278 19.483 51.3011 19.483C51.5811 19.483 51.8345 19.4363 52.0611 19.343C52.2945 19.2497 52.4845 19.113 52.6311 18.933C52.7845 18.753 52.8845 18.5397 52.9311 18.293L53.3911 18.453C53.3045 18.7597 53.1611 19.023 52.9611 19.243C52.7678 19.463 52.5311 19.633 52.2511 19.753C51.9711 19.8663 51.6578 19.923 51.3111 19.923C50.8578 19.923 50.4511 19.8197 50.0911 19.613C49.7378 19.4063 49.4611 19.1097 49.2611 18.723C49.0611 18.3297 48.9611 17.863 48.9611 17.323C48.9611 16.783 49.0611 16.3197 49.2611 15.933C49.4678 15.5397 49.7478 15.2397 50.1011 15.033C50.4611 14.8263 50.8678 14.723 51.3211 14.723ZM54.7308 19.823V12.523H55.2308V15.843C55.3775 15.4897 55.6142 15.2163 55.9408 15.023C56.2675 14.823 56.6442 14.723 57.0708 14.723C57.4442 14.723 57.7742 14.793 58.0608 14.933C58.3475 15.0663 58.5708 15.273 58.7308 15.553C58.8975 15.8263 58.9808 16.1663 58.9808 16.573V19.823H58.4808V16.733C58.4808 16.193 58.3442 15.7963 58.0708 15.543C57.8042 15.283 57.4542 15.153 57.0208 15.153C56.7075 15.153 56.4142 15.2263 56.1408 15.373C55.8742 15.5197 55.6542 15.7297 55.4808 16.003C55.3142 16.2763 55.2308 16.6097 55.2308 17.003V19.823H54.7308ZM69.0621 13.223V19.823H68.4421L64.9421 14.643L64.4521 13.793H64.4421L64.4721 14.593V19.823H63.9921V13.223H64.6221L68.1121 18.393L68.6121 19.253L68.5921 18.453V13.223H69.0621ZM72.9525 14.723C73.4191 14.723 73.8291 14.8263 74.1825 15.033C74.5425 15.2397 74.8225 15.5397 75.0225 15.933C75.2291 16.3197 75.3325 16.783 75.3325 17.323C75.3325 17.863 75.2291 18.3297 75.0225 18.723C74.8225 19.1097 74.5425 19.4063 74.1825 19.613C73.8291 19.8197 73.4191 19.923 72.9525 19.923C72.4858 19.923 72.0725 19.8197 71.7125 19.613C71.3591 19.4063 71.0791 19.1097 70.8725 18.723C70.6725 18.3297 70.5725 17.863 70.5725 17.323C70.5725 16.783 70.6725 16.3197 70.8725 15.933C71.0791 15.5397 71.3591 15.2397 71.7125 15.033C72.0725 14.8263 72.4858 14.723 72.9525 14.723ZM72.9525 15.153C72.5725 15.153 72.2425 15.2397 71.9625 15.413C71.6825 15.5863 71.4625 15.8363 71.3025 16.163C71.1491 16.483 71.0725 16.8697 71.0725 17.323C71.0725 17.7697 71.1491 18.1563 71.3025 18.483C71.4625 18.8097 71.6825 19.0597 71.9625 19.233C72.2425 19.4063 72.5725 19.493 72.9525 19.493C73.3325 19.493 73.6625 19.4063 73.9425 19.233C74.2225 19.0597 74.4391 18.8097 74.5925 18.483C74.7525 18.1563 74.8325 17.7697 74.8325 17.323C74.8325 16.8697 74.7525 16.483 74.5925 16.163C74.4391 15.8363 74.2225 15.5863 73.9425 15.413C73.6625 15.2397 73.3325 15.153 72.9525 15.153ZM83.0051 14.823H83.5551L81.8551 19.823H81.3551L79.7751 15.473L78.2251 19.823H77.7251L76.0251 14.823H76.5751L77.9851 19.223L79.5351 14.823H80.0451L81.6051 19.223L83.0051 14.823Z" fill="#FF4E4E"/>
<path d="M25.4033 16.691L17.5283 21.2377V12.1444L25.4033 16.691Z" fill="#FF4E4E"/>
</svg>
