<svg width="123" height="40" viewBox="0 0 123 40" fill="none" xmlns="http://www.w3.org/2000/svg">
<rect x="0.74647" y="1.05323" width="116.156" height="38.1565" rx="19.0782" fill="#080808" stroke="#FF4E4E" stroke-width="0.843526"/>
<path d="M28.8247 20.6316L20.9497 25.1782V16.085L28.8247 20.6316Z" fill="#FF4E4E"/>
<path d="M36.7918 23.7819L34.5258 16.5219H35.0978L37.1438 23.2759L39.0358 16.5219H39.6738L41.5768 23.2869L43.6228 16.5219H44.1728L41.9068 23.7819H41.2248L39.7618 18.6889L39.3548 17.1159H39.3438L38.9368 18.6889L37.4738 23.7819H36.7918ZM48.4236 20.1629C48.4236 19.6862 48.2953 19.3159 48.0386 19.0519C47.7819 18.7879 47.4153 18.6559 46.9386 18.6559C46.5206 18.6559 46.1613 18.7475 45.8606 18.9309C45.5599 19.1069 45.3363 19.4039 45.1896 19.8219L44.7386 19.5359C44.8999 19.1032 45.1676 18.7695 45.5416 18.5349C45.9229 18.2929 46.3923 18.1719 46.9496 18.1719C47.3529 18.1719 47.7049 18.2452 48.0056 18.3919C48.3136 18.5312 48.5519 18.7402 48.7206 19.0189C48.8893 19.2975 48.9736 19.6459 48.9736 20.0639V22.8139C48.9736 23.2025 49.1496 23.3969 49.5016 23.3969C49.6556 23.3969 49.7876 23.3712 49.8976 23.3199L49.8646 23.7599C49.7399 23.8259 49.5786 23.8589 49.3806 23.8589C49.2119 23.8589 49.0543 23.8259 48.9076 23.7599C48.7609 23.6939 48.6399 23.5839 48.5446 23.4299C48.4566 23.2759 48.4126 23.0669 48.4126 22.8029V22.5059L48.5666 22.4949C48.5006 22.8102 48.3539 23.0742 48.1266 23.2869C47.9066 23.4922 47.6499 23.6462 47.3566 23.7489C47.0633 23.8442 46.7699 23.8919 46.4766 23.8919C46.1319 23.8919 45.8239 23.8369 45.5526 23.7269C45.2813 23.6169 45.0686 23.4592 44.9146 23.2539C44.7606 23.0412 44.6836 22.7809 44.6836 22.4729C44.6836 22.0622 44.8193 21.7322 45.0906 21.4829C45.3693 21.2262 45.7579 21.0502 46.2566 20.9549L48.5336 20.5039V20.9659L46.5316 21.3619C46.0989 21.4499 45.7763 21.5782 45.5636 21.7469C45.3509 21.9155 45.2446 22.1465 45.2446 22.4399C45.2446 22.7405 45.3583 22.9789 45.5856 23.1549C45.8129 23.3235 46.1356 23.4079 46.5536 23.4079C46.7663 23.4079 46.9826 23.3785 47.2026 23.3199C47.4226 23.2612 47.6243 23.1695 47.8076 23.0449C47.9983 22.9129 48.1486 22.7515 48.2586 22.5609C48.3686 22.3629 48.4236 22.1245 48.4236 21.8459V20.1629ZM51.7821 16.7529V22.3299C51.7821 22.6745 51.8628 22.9385 52.0241 23.1219C52.1928 23.2979 52.4348 23.3859 52.7501 23.3859C52.9555 23.3859 53.1351 23.3529 53.2891 23.2869C53.4505 23.2135 53.5935 23.1109 53.7181 22.9789L53.9271 23.4299C53.7878 23.5692 53.6118 23.6829 53.3991 23.7709C53.1865 23.8515 52.9481 23.8919 52.6841 23.8919C52.3981 23.8919 52.1451 23.8405 51.9251 23.7379C51.7051 23.6279 51.5328 23.4629 51.4081 23.2429C51.2908 23.0229 51.2321 22.7442 51.2321 22.4069V16.9069L51.7821 16.7529ZM53.8391 18.2819V18.7549H50.1321V18.2819H53.8391ZM57.2376 18.1719C57.6116 18.1719 57.9453 18.2305 58.2386 18.3479C58.532 18.4652 58.7813 18.6339 58.9866 18.8539C59.192 19.0739 59.3496 19.3415 59.4596 19.6569L58.9426 19.8989C58.8253 19.5029 58.62 19.1985 58.3266 18.9859C58.0406 18.7659 57.674 18.6559 57.2266 18.6559C56.8233 18.6559 56.4676 18.7512 56.1596 18.9419C55.8516 19.1252 55.6133 19.3965 55.4446 19.7559C55.276 20.1079 55.1916 20.5332 55.1916 21.0319C55.1916 21.5232 55.276 21.9485 55.4446 22.3079C55.6133 22.6672 55.848 22.9422 56.1486 23.1329C56.4493 23.3162 56.805 23.4079 57.2156 23.4079C57.5236 23.4079 57.8023 23.3565 58.0516 23.2539C58.3083 23.1512 58.5173 23.0009 58.6786 22.8029C58.8473 22.6049 58.9573 22.3702 59.0086 22.0989L59.5146 22.2749C59.4193 22.6122 59.2616 22.9019 59.0416 23.1439C58.829 23.3859 58.5686 23.5729 58.2606 23.7049C57.9526 23.8295 57.608 23.8919 57.2266 23.8919C56.728 23.8919 56.2806 23.7782 55.8846 23.5509C55.496 23.3235 55.1916 22.9972 54.9716 22.5719C54.7516 22.1392 54.6416 21.6259 54.6416 21.0319C54.6416 20.4379 54.7516 19.9282 54.9716 19.5029C55.199 19.0702 55.507 18.7402 55.8956 18.5129C56.2916 18.2855 56.739 18.1719 57.2376 18.1719ZM60.9883 23.7819V15.7519H61.5383V19.4039C61.6996 19.0152 61.9599 18.7145 62.3193 18.5019C62.6786 18.2819 63.0929 18.1719 63.5623 18.1719C63.9729 18.1719 64.3359 18.2489 64.6513 18.4029C64.9666 18.5495 65.2123 18.7769 65.3883 19.0849C65.5716 19.3855 65.6633 19.7595 65.6633 20.2069V23.7819H65.1133V20.3829C65.1133 19.7889 64.9629 19.3525 64.6623 19.0739C64.3689 18.7879 63.9839 18.6449 63.5073 18.6449C63.1626 18.6449 62.8399 18.7255 62.5393 18.8869C62.2459 19.0482 62.0039 19.2792 61.8133 19.5799C61.6299 19.8805 61.5383 20.2472 61.5383 20.6799V23.7819H60.9883ZM76.7527 16.5219V23.7819H76.0707L72.2207 18.0839L71.6817 17.1489H71.6707L71.7037 18.0289V23.7819H71.1757V16.5219H71.8687L75.7077 22.2089L76.2577 23.1549L76.2357 22.2749V16.5219H76.7527ZM81.0321 18.1719C81.5454 18.1719 81.9964 18.2855 82.3851 18.5129C82.7811 18.7402 83.0891 19.0702 83.3091 19.5029C83.5364 19.9282 83.6501 20.4379 83.6501 21.0319C83.6501 21.6259 83.5364 22.1392 83.3091 22.5719C83.0891 22.9972 82.7811 23.3235 82.3851 23.5509C81.9964 23.7782 81.5454 23.8919 81.0321 23.8919C80.5187 23.8919 80.0641 23.7782 79.6681 23.5509C79.2794 23.3235 78.9714 22.9972 78.7441 22.5719C78.5241 22.1392 78.4141 21.6259 78.4141 21.0319C78.4141 20.4379 78.5241 19.9282 78.7441 19.5029C78.9714 19.0702 79.2794 18.7402 79.6681 18.5129C80.0641 18.2855 80.5187 18.1719 81.0321 18.1719ZM81.0321 18.6449C80.6141 18.6449 80.2511 18.7402 79.9431 18.9309C79.6351 19.1215 79.3931 19.3965 79.2171 19.7559C79.0484 20.1079 78.9641 20.5332 78.9641 21.0319C78.9641 21.5232 79.0484 21.9485 79.2171 22.3079C79.3931 22.6672 79.6351 22.9422 79.9431 23.1329C80.2511 23.3235 80.6141 23.4189 81.0321 23.4189C81.4501 23.4189 81.8131 23.3235 82.1211 23.1329C82.4291 22.9422 82.6674 22.6672 82.8361 22.3079C83.0121 21.9485 83.1001 21.5232 83.1001 21.0319C83.1001 20.5332 83.0121 20.1079 82.8361 19.7559C82.6674 19.3965 82.4291 19.1215 82.1211 18.9309C81.8131 18.7402 81.4501 18.6449 81.0321 18.6449ZM92.09 18.2819H92.695L90.825 23.7819H90.275L88.537 18.9969L86.832 23.7819H86.282L84.412 18.2819H85.017L86.568 23.1219L88.273 18.2819H88.834L90.55 23.1219L92.09 18.2819Z" fill="#FF4E4E"/>
</svg>
