<svg width="157" height="45" viewBox="0 0 157 45" fill="none" xmlns="http://www.w3.org/2000/svg">
<rect x="1.37258" y="1.13076" width="150.046" height="43.0459" rx="21.5229" fill="#080808" stroke="#FF4E4E" stroke-width="0.954145"/>
<path d="M36.5 23.0001L28.625 27.5468V18.4535L36.5 23.0001Z" fill="#FF4E4E"/>
<path d="M47.4355 27.8591L44.3455 17.9591H45.1255L47.9155 27.1691L50.4955 17.9591H51.3655L53.9605 27.1841L56.7505 17.9591H57.5005L54.4105 27.8591H53.4805L51.4855 20.9141L50.9305 18.7691H50.9155L50.3605 20.9141L48.3655 27.8591H47.4355ZM63.2971 22.9241C63.2971 22.2741 63.1221 21.7691 62.7721 21.4091C62.4221 21.0491 61.9221 20.8691 61.2721 20.8691C60.7021 20.8691 60.2121 20.9941 59.8021 21.2441C59.3921 21.4841 59.0871 21.8891 58.8871 22.4591L58.2721 22.0691C58.4921 21.4791 58.8571 21.0241 59.3671 20.7041C59.8871 20.3741 60.5271 20.2091 61.2871 20.2091C61.8371 20.2091 62.3171 20.3091 62.7271 20.5091C63.1471 20.6991 63.4721 20.9841 63.7021 21.3641C63.9321 21.7441 64.0471 22.2191 64.0471 22.7891V26.5391C64.0471 27.0691 64.2871 27.3341 64.7671 27.3341C64.9771 27.3341 65.1571 27.2991 65.3071 27.2291L65.2621 27.8291C65.0921 27.9191 64.8721 27.9641 64.6021 27.9641C64.3721 27.9641 64.1571 27.9191 63.9571 27.8291C63.7571 27.7391 63.5921 27.5891 63.4621 27.3791C63.3421 27.1691 63.2821 26.8841 63.2821 26.5241V26.1191L63.4921 26.1041C63.4021 26.5341 63.2021 26.8941 62.8921 27.1841C62.5921 27.4641 62.2421 27.6741 61.8421 27.8141C61.4421 27.9441 61.0421 28.0091 60.6421 28.0091C60.1721 28.0091 59.7521 27.9341 59.3821 27.7841C59.0121 27.6341 58.7221 27.4191 58.5121 27.1391C58.3021 26.8491 58.1971 26.4941 58.1971 26.0741C58.1971 25.5141 58.3821 25.0641 58.7521 24.7241C59.1321 24.3741 59.6621 24.1341 60.3421 24.0041L63.4471 23.3891V24.0191L60.7171 24.5591C60.1271 24.6791 59.6871 24.8541 59.3971 25.0841C59.1071 25.3141 58.9621 25.6291 58.9621 26.0291C58.9621 26.4391 59.1171 26.7641 59.4271 27.0041C59.7371 27.2341 60.1771 27.3491 60.7471 27.3491C61.0371 27.3491 61.3321 27.3091 61.6321 27.2291C61.9321 27.1491 62.2071 27.0241 62.4571 26.8541C62.7171 26.6741 62.9221 26.4541 63.0721 26.1941C63.2221 25.9241 63.2971 25.5991 63.2971 25.2191V22.9241ZM67.8769 18.2741V25.8791C67.8769 26.3491 67.9869 26.7091 68.2069 26.9591C68.4369 27.1991 68.7669 27.3191 69.1969 27.3191C69.4769 27.3191 69.7219 27.2741 69.9319 27.1841C70.1519 27.0841 70.3469 26.9441 70.5169 26.7641L70.8019 27.3791C70.6119 27.5691 70.3719 27.7241 70.0819 27.8441C69.7919 27.9541 69.4669 28.0091 69.1069 28.0091C68.7169 28.0091 68.3719 27.9391 68.0719 27.7991C67.7719 27.6491 67.5369 27.4241 67.3669 27.1241C67.2069 26.8241 67.1269 26.4441 67.1269 25.9841V18.4841L67.8769 18.2741ZM70.6819 20.3591V21.0041H65.6269V20.3591H70.6819ZM75.3162 20.2091C75.8262 20.2091 76.2812 20.2891 76.6812 20.4491C77.0812 20.6091 77.4212 20.8391 77.7012 21.1391C77.9812 21.4391 78.1962 21.8041 78.3462 22.2341L77.6412 22.5641C77.4812 22.0241 77.2012 21.6091 76.8012 21.3191C76.4112 21.0191 75.9112 20.8691 75.3012 20.8691C74.7512 20.8691 74.2662 20.9991 73.8462 21.2591C73.4262 21.5091 73.1012 21.8791 72.8712 22.3691C72.6412 22.8491 72.5262 23.4291 72.5262 24.1091C72.5262 24.7791 72.6412 25.3591 72.8712 25.8491C73.1012 26.3391 73.4212 26.7141 73.8312 26.9741C74.2412 27.2241 74.7262 27.3491 75.2862 27.3491C75.7062 27.3491 76.0862 27.2791 76.4262 27.1391C76.7762 26.9991 77.0612 26.7941 77.2812 26.5241C77.5112 26.2541 77.6612 25.9341 77.7312 25.5641L78.4212 25.8041C78.2912 26.2641 78.0762 26.6591 77.7762 26.9891C77.4862 27.3191 77.1312 27.5741 76.7112 27.7541C76.2912 27.9241 75.8212 28.0091 75.3012 28.0091C74.6212 28.0091 74.0112 27.8541 73.4712 27.5441C72.9412 27.2341 72.5262 26.7891 72.2262 26.2091C71.9262 25.6191 71.7762 24.9191 71.7762 24.1091C71.7762 23.2991 71.9262 22.6041 72.2262 22.0241C72.5362 21.4341 72.9562 20.9841 73.4862 20.6741C74.0262 20.3641 74.6362 20.2091 75.3162 20.2091ZM80.4307 27.8591V16.9091H81.1807V21.8891C81.4007 21.3591 81.7557 20.9491 82.2457 20.6591C82.7357 20.3591 83.3007 20.2091 83.9407 20.2091C84.5007 20.2091 84.9957 20.3141 85.4257 20.5241C85.8557 20.7241 86.1907 21.0341 86.4307 21.4541C86.6807 21.8641 86.8057 22.3741 86.8057 22.9841V27.8591H86.0557V23.2241C86.0557 22.4141 85.8507 21.8191 85.4407 21.4391C85.0407 21.0491 84.5157 20.8541 83.8657 20.8541C83.3957 20.8541 82.9557 20.9641 82.5457 21.1841C82.1457 21.4041 81.8157 21.7191 81.5557 22.1291C81.3057 22.5391 81.1807 23.0391 81.1807 23.6291V27.8591H80.4307ZM101.928 17.9591V27.8591H100.998L95.7477 20.0891L95.0127 18.8141H94.9977L95.0427 20.0141V27.8591H94.3227V17.9591H95.2677L100.503 25.7141L101.253 27.0041L101.223 25.8041V17.9591H101.928ZM107.763 20.2091C108.463 20.2091 109.078 20.3641 109.608 20.6741C110.148 20.9841 110.568 21.4341 110.868 22.0241C111.178 22.6041 111.333 23.2991 111.333 24.1091C111.333 24.9191 111.178 25.6191 110.868 26.2091C110.568 26.7891 110.148 27.2341 109.608 27.5441C109.078 27.8541 108.463 28.0091 107.763 28.0091C107.063 28.0091 106.443 27.8541 105.903 27.5441C105.373 27.2341 104.953 26.7891 104.643 26.2091C104.343 25.6191 104.193 24.9191 104.193 24.1091C104.193 23.2991 104.343 22.6041 104.643 22.0241C104.953 21.4341 105.373 20.9841 105.903 20.6741C106.443 20.3641 107.063 20.2091 107.763 20.2091ZM107.763 20.8541C107.193 20.8541 106.698 20.9841 106.278 21.2441C105.858 21.5041 105.528 21.8791 105.288 22.3691C105.058 22.8491 104.943 23.4291 104.943 24.1091C104.943 24.7791 105.058 25.3591 105.288 25.8491C105.528 26.3391 105.858 26.7141 106.278 26.9741C106.698 27.2341 107.193 27.3641 107.763 27.3641C108.333 27.3641 108.828 27.2341 109.248 26.9741C109.668 26.7141 109.993 26.3391 110.223 25.8491C110.463 25.3591 110.583 24.7791 110.583 24.1091C110.583 23.4291 110.463 22.8491 110.223 22.3691C109.993 21.8791 109.668 21.5041 109.248 21.2441C108.828 20.9841 108.333 20.8541 107.763 20.8541ZM122.842 20.3591H123.667L121.117 27.8591H120.367L117.997 21.3341L115.672 27.8591H114.922L112.372 20.3591H113.197L115.312 26.9591L117.637 20.3591H118.402L120.742 26.9591L122.842 20.3591Z" fill="#FF4E4E"/>
</svg>
