<svg width="41" height="41" viewBox="0 0 41 41" fill="none" xmlns="http://www.w3.org/2000/svg">
<path d="M14.532 26.731V25.507C14.532 25.3483 14.4754 25.2067 14.362 25.082C14.2487 24.9573 14.107 24.9007 13.937 24.912H12.713C12.5544 24.912 12.4127 24.9687 12.288 25.082C12.1634 25.1953 12.101 25.337 12.101 25.507V26.731C12.101 26.8897 12.1634 27.0313 12.288 27.156C12.4127 27.2807 12.5544 27.343 12.713 27.343H13.937C14.0957 27.343 14.2374 27.2807 14.362 27.156C14.4867 27.0313 14.5434 26.8897 14.532 26.731ZM14.532 23.093V21.869C14.532 21.7103 14.4754 21.5687 14.362 21.444C14.2487 21.3193 14.107 21.257 13.937 21.257H12.713C12.5544 21.257 12.4127 21.3193 12.288 21.444C12.1634 21.5687 12.101 21.7103 12.101 21.869V23.093C12.101 23.2517 12.1634 23.3933 12.288 23.518C12.4127 23.6427 12.5544 23.6993 12.713 23.688H13.937C14.0957 23.688 14.2374 23.6313 14.362 23.518C14.4867 23.4047 14.5434 23.263 14.532 23.093ZM14.532 19.438V18.231C14.532 18.061 14.4754 17.9193 14.362 17.806C14.2487 17.6927 14.107 17.6303 13.937 17.619H12.713C12.5544 17.619 12.4127 17.6813 12.288 17.806C12.1634 17.9307 12.101 18.0723 12.101 18.231V19.438C12.101 19.608 12.1634 19.7497 12.288 19.863C12.4127 19.9763 12.5544 20.0387 12.713 20.05H13.937C14.0957 20.05 14.2374 19.9877 14.362 19.863C14.4867 19.7383 14.5434 19.5967 14.532 19.438ZM24.256 26.731V21.869C24.256 21.7103 24.1937 21.5687 24.069 21.444C23.9444 21.3193 23.8027 21.257 23.644 21.257H16.351C16.1924 21.257 16.0507 21.3193 15.926 21.444C15.8014 21.5687 15.7447 21.7103 15.756 21.869V26.731C15.756 26.8897 15.8127 27.0313 15.926 27.156C16.0394 27.2807 16.181 27.343 16.351 27.343H23.644C23.814 27.343 23.9557 27.2807 24.069 27.156C24.1824 27.0313 24.2447 26.8897 24.256 26.731ZM14.532 15.8V14.593C14.532 14.423 14.4754 14.2757 14.362 14.151C14.2487 14.0263 14.107 13.9697 13.937 13.981H12.713C12.5544 13.981 12.4127 14.0377 12.288 14.151C12.1634 14.2643 12.101 14.4117 12.101 14.593V15.8C12.101 15.9587 12.1634 16.1003 12.288 16.225C12.4127 16.3497 12.5544 16.412 12.713 16.412H13.937C14.0957 16.412 14.2374 16.3497 14.362 16.225C14.4867 16.1003 14.5434 15.9587 14.532 15.8ZM27.894 26.731V25.507C27.894 25.3483 27.8317 25.2067 27.707 25.082C27.5824 24.9573 27.4407 24.9007 27.282 24.912H26.075C25.905 24.912 25.7634 24.9687 25.65 25.082C25.5367 25.1953 25.4744 25.337 25.463 25.507V26.731C25.463 26.8897 25.5254 27.0313 25.65 27.156C25.7747 27.2807 25.9164 27.343 26.075 27.343H27.282C27.452 27.343 27.5937 27.2807 27.707 27.156C27.8204 27.0313 27.8827 26.8897 27.894 26.731ZM24.256 19.438V14.593C24.256 14.423 24.1937 14.2757 24.069 14.151C23.9444 14.0263 23.8027 13.9697 23.644 13.981H16.351C16.1924 13.981 16.0507 14.0377 15.926 14.151C15.8014 14.2643 15.7447 14.4117 15.756 14.593V19.438C15.756 19.608 15.8127 19.7497 15.926 19.863C16.0394 19.9763 16.181 20.0387 16.351 20.05H23.644C23.814 20.05 23.9557 19.9877 24.069 19.863C24.1824 19.7383 24.2447 19.5967 24.256 19.438ZM27.894 23.093V21.869C27.894 21.7103 27.8317 21.5687 27.707 21.444C27.5824 21.3193 27.4407 21.257 27.282 21.257H26.075C25.905 21.257 25.7634 21.3193 25.65 21.444C25.5367 21.5687 25.4744 21.7103 25.463 21.869V23.093C25.463 23.2517 25.5254 23.3933 25.65 23.518C25.7747 23.6427 25.9164 23.6993 26.075 23.688H27.282C27.452 23.688 27.5937 23.6313 27.707 23.518C27.8204 23.4047 27.8827 23.263 27.894 23.093ZM27.894 19.438V18.231C27.894 18.061 27.8317 17.9193 27.707 17.806C27.5824 17.6927 27.4407 17.6303 27.282 17.619H26.075C25.905 17.619 25.7634 17.6813 25.65 17.806C25.5367 17.9307 25.4744 18.0723 25.463 18.231V19.438C25.463 19.608 25.5254 19.7497 25.65 19.863C25.7747 19.9763 25.9164 20.0387 26.075 20.05H27.282C27.452 20.05 27.5937 19.9877 27.707 19.863C27.8204 19.7383 27.8827 19.5967 27.894 19.438ZM27.894 15.8V14.593C27.894 14.423 27.8317 14.2757 27.707 14.151C27.5824 14.0263 27.4407 13.9697 27.282 13.981H26.075C25.905 13.981 25.7634 14.0377 25.65 14.151C25.5367 14.2643 25.4744 14.4117 25.463 14.593V15.8C25.463 15.9587 25.5254 16.1003 25.65 16.225C25.7747 16.3497 25.9164 16.412 26.075 16.412H27.282C27.452 16.412 27.5937 16.3497 27.707 16.225C27.8204 16.1003 27.8827 15.9587 27.894 15.8ZM29.101 14.287V27.037C29.101 27.4563 28.9537 27.8133 28.659 28.108C28.3644 28.4027 28.0074 28.55 27.588 28.55H12.407C11.999 28.55 11.642 28.4027 11.336 28.108C11.03 27.8133 10.8827 27.4563 10.894 27.037V14.287C10.894 13.8677 11.0414 13.5107 11.336 13.216C11.6307 12.9213 11.9877 12.7683 12.407 12.757H27.588C28.0074 12.757 28.3644 12.91 28.659 13.216C28.9537 13.522 29.101 13.879 29.101 14.287Z" fill="white"/>
</svg>
