<svg width="33" height="33" viewBox="0 0 33 33" fill="none" xmlns="http://www.w3.org/2000/svg">
<path d="M18.8959 17.2117L21.2759 14.8877L17.9859 14.4117L16.5019 11.4297L15.0319 14.4117L11.7279 14.8877L14.1219 17.2117L13.5479 20.5017L16.5019 18.9477L19.4559 20.5017L18.8959 17.2117ZM23.0119 14.4257C23.0119 14.5377 22.9419 14.6637 22.8019 14.8037L19.9739 17.5617L20.6459 21.4677V21.6357C20.6459 21.8971 20.5385 22.0277 20.3239 22.0277C20.2305 22.0277 20.1279 21.9951 20.0159 21.9297L16.5019 20.0817L13.0019 21.9297C12.8899 21.9951 12.7825 22.0277 12.6799 22.0277C12.5772 22.0277 12.4979 21.9857 12.4419 21.9017C12.3859 21.8177 12.3579 21.7291 12.3579 21.6357C12.3579 21.5984 12.3625 21.5424 12.3719 21.4677L13.0439 17.5617L10.2019 14.8037C10.0712 14.6637 10.0059 14.5377 10.0059 14.4257C10.0059 14.2297 10.1505 14.1084 10.4399 14.0617L14.3599 13.5017L16.1239 9.94573C16.2265 9.73106 16.3525 9.62373 16.5019 9.62373C16.6512 9.62373 16.7819 9.73106 16.8939 9.94573L18.6439 13.5017L22.5639 14.0617C22.8625 14.1084 23.0119 14.2297 23.0119 14.4257Z" fill="white"/>
</svg>
