<svg width="41" height="41" viewBox="0 0 41 41" fill="none" xmlns="http://www.w3.org/2000/svg">
<path d="M14.7104 27.3173V26.0213C14.7104 25.8533 14.6504 25.7033 14.5304 25.5713C14.4104 25.4393 14.2604 25.3793 14.0804 25.3913H12.7844C12.6164 25.3913 12.4664 25.4513 12.3344 25.5713C12.2024 25.6913 12.1364 25.8413 12.1364 26.0213V27.3173C12.1364 27.4853 12.2024 27.6353 12.3344 27.7673C12.4664 27.8993 12.6164 27.9653 12.7844 27.9653H14.0804C14.2484 27.9653 14.3984 27.8993 14.5304 27.7673C14.6624 27.6353 14.7224 27.4853 14.7104 27.3173ZM14.7104 23.4653V22.1693C14.7104 22.0013 14.6504 21.8513 14.5304 21.7193C14.4104 21.5873 14.2604 21.5213 14.0804 21.5213H12.7844C12.6164 21.5213 12.4664 21.5873 12.3344 21.7193C12.2024 21.8513 12.1364 22.0013 12.1364 22.1693V23.4653C12.1364 23.6333 12.2024 23.7833 12.3344 23.9153C12.4664 24.0473 12.6164 24.1073 12.7844 24.0953H14.0804C14.2484 24.0953 14.3984 24.0353 14.5304 23.9153C14.6624 23.7953 14.7224 23.6453 14.7104 23.4653ZM14.7104 19.5953V18.3173C14.7104 18.1373 14.6504 17.9873 14.5304 17.8673C14.4104 17.7473 14.2604 17.6813 14.0804 17.6693H12.7844C12.6164 17.6693 12.4664 17.7353 12.3344 17.8673C12.2024 17.9993 12.1364 18.1493 12.1364 18.3173V19.5953C12.1364 19.7753 12.2024 19.9253 12.3344 20.0453C12.4664 20.1653 12.6164 20.2313 12.7844 20.2433H14.0804C14.2484 20.2433 14.3984 20.1773 14.5304 20.0453C14.6624 19.9133 14.7224 19.7633 14.7104 19.5953ZM25.0064 27.3173V22.1693C25.0064 22.0013 24.9404 21.8513 24.8084 21.7193C24.6764 21.5873 24.5264 21.5213 24.3584 21.5213H16.6364C16.4684 21.5213 16.3184 21.5873 16.1864 21.7193C16.0544 21.8513 15.9944 22.0013 16.0064 22.1693V27.3173C16.0064 27.4853 16.0664 27.6353 16.1864 27.7673C16.3064 27.8993 16.4564 27.9653 16.6364 27.9653H24.3584C24.5384 27.9653 24.6884 27.8993 24.8084 27.7673C24.9284 27.6353 24.9944 27.4853 25.0064 27.3173ZM14.7104 15.7433V14.4653C14.7104 14.2853 14.6504 14.1293 14.5304 13.9973C14.4104 13.8653 14.2604 13.8053 14.0804 13.8173H12.7844C12.6164 13.8173 12.4664 13.8773 12.3344 13.9973C12.2024 14.1173 12.1364 14.2733 12.1364 14.4653V15.7433C12.1364 15.9113 12.2024 16.0613 12.3344 16.1933C12.4664 16.3253 12.6164 16.3913 12.7844 16.3913H14.0804C14.2484 16.3913 14.3984 16.3253 14.5304 16.1933C14.6624 16.0613 14.7224 15.9113 14.7104 15.7433ZM28.8584 27.3173V26.0213C28.8584 25.8533 28.7924 25.7033 28.6604 25.5713C28.5284 25.4393 28.3784 25.3793 28.2104 25.3913H26.9324C26.7524 25.3913 26.6024 25.4513 26.4824 25.5713C26.3624 25.6913 26.2964 25.8413 26.2844 26.0213V27.3173C26.2844 27.4853 26.3504 27.6353 26.4824 27.7673C26.6144 27.8993 26.7644 27.9653 26.9324 27.9653H28.2104C28.3904 27.9653 28.5404 27.8993 28.6604 27.7673C28.7804 27.6353 28.8464 27.4853 28.8584 27.3173ZM25.0064 19.5953V14.4653C25.0064 14.2853 24.9404 14.1293 24.8084 13.9973C24.6764 13.8653 24.5264 13.8053 24.3584 13.8173H16.6364C16.4684 13.8173 16.3184 13.8773 16.1864 13.9973C16.0544 14.1173 15.9944 14.2733 16.0064 14.4653V19.5953C16.0064 19.7753 16.0664 19.9253 16.1864 20.0453C16.3064 20.1653 16.4564 20.2313 16.6364 20.2433H24.3584C24.5384 20.2433 24.6884 20.1773 24.8084 20.0453C24.9284 19.9133 24.9944 19.7633 25.0064 19.5953ZM28.8584 23.4653V22.1693C28.8584 22.0013 28.7924 21.8513 28.6604 21.7193C28.5284 21.5873 28.3784 21.5213 28.2104 21.5213H26.9324C26.7524 21.5213 26.6024 21.5873 26.4824 21.7193C26.3624 21.8513 26.2964 22.0013 26.2844 22.1693V23.4653C26.2844 23.6333 26.3504 23.7833 26.4824 23.9153C26.6144 24.0473 26.7644 24.1073 26.9324 24.0953H28.2104C28.3904 24.0953 28.5404 24.0353 28.6604 23.9153C28.7804 23.7953 28.8464 23.6453 28.8584 23.4653ZM28.8584 19.5953V18.3173C28.8584 18.1373 28.7924 17.9873 28.6604 17.8673C28.5284 17.7473 28.3784 17.6813 28.2104 17.6693H26.9324C26.7524 17.6693 26.6024 17.7353 26.4824 17.8673C26.3624 17.9993 26.2964 18.1493 26.2844 18.3173V19.5953C26.2844 19.7753 26.3504 19.9253 26.4824 20.0453C26.6144 20.1653 26.7644 20.2313 26.9324 20.2433H28.2104C28.3904 20.2433 28.5404 20.1773 28.6604 20.0453C28.7804 19.9133 28.8464 19.7633 28.8584 19.5953ZM28.8584 15.7433V14.4653C28.8584 14.2853 28.7924 14.1293 28.6604 13.9973C28.5284 13.8653 28.3784 13.8053 28.2104 13.8173H26.9324C26.7524 13.8173 26.6024 13.8773 26.4824 13.9973C26.3624 14.1173 26.2964 14.2733 26.2844 14.4653V15.7433C26.2844 15.9113 26.3504 16.0613 26.4824 16.1933C26.6144 16.3253 26.7644 16.3913 26.9324 16.3913H28.2104C28.3904 16.3913 28.5404 16.3253 28.6604 16.1933C28.7804 16.0613 28.8464 15.9113 28.8584 15.7433ZM30.1364 14.1413V27.6413C30.1364 28.0853 29.9804 28.4633 29.6684 28.7753C29.3564 29.0873 28.9784 29.2433 28.5344 29.2433H12.4604C12.0284 29.2433 11.6504 29.0873 11.3264 28.7753C11.0024 28.4633 10.8464 28.0853 10.8584 27.6413V14.1413C10.8584 13.6973 11.0144 13.3193 11.3264 13.0073C11.6384 12.6953 12.0164 12.5333 12.4604 12.5213H28.5344C28.9784 12.5213 29.3564 12.6833 29.6684 13.0073C29.9804 13.3313 30.1364 13.7093 30.1364 14.1413Z" fill="white"/>
</svg>
