<svg width="41" height="41" viewBox="0 0 41 41" fill="none" xmlns="http://www.w3.org/2000/svg">
<path d="M23.5804 21.3233L26.6404 18.3353L22.4104 17.7233L20.5024 13.8893L18.6124 17.7233L14.3644 18.3353L17.4424 21.3233L16.7044 25.5533L20.5024 23.5553L24.3004 25.5533L23.5804 21.3233ZM28.8724 17.7413C28.8724 17.8853 28.7824 18.0473 28.6024 18.2273L24.9664 21.7733L25.8304 26.7953V27.0113C25.8304 27.3473 25.6924 27.5153 25.4164 27.5153C25.2964 27.5153 25.1644 27.4733 25.0204 27.3893L20.5024 25.0133L16.0024 27.3893C15.8584 27.4733 15.7204 27.5153 15.5884 27.5153C15.4564 27.5153 15.3544 27.4613 15.2824 27.3533C15.2104 27.2453 15.1744 27.1313 15.1744 27.0113C15.1744 26.9633 15.1804 26.8913 15.1924 26.7953L16.0564 21.7733L12.4024 18.2273C12.2344 18.0473 12.1504 17.8853 12.1504 17.7413C12.1504 17.4893 12.3364 17.3333 12.7084 17.2733L17.7484 16.5533L20.0164 11.9813C20.1484 11.7053 20.3104 11.5673 20.5024 11.5673C20.6944 11.5673 20.8624 11.7053 21.0064 11.9813L23.2564 16.5533L28.2964 17.2733C28.6804 17.3333 28.8724 17.4893 28.8724 17.7413Z" fill="white"/>
</svg>
