<svg width="33" height="33" viewBox="0 0 33 33" fill="none" xmlns="http://www.w3.org/2000/svg">
<path d="M11.997 21.8737V20.8657C11.997 20.7351 11.9503 20.6184 11.857 20.5157C11.7636 20.4131 11.647 20.3664 11.507 20.3757H10.499C10.3683 20.3757 10.2516 20.4224 10.149 20.5157C10.0463 20.6091 9.99498 20.7257 9.99498 20.8657V21.8737C9.99498 22.0044 10.0463 22.1211 10.149 22.2237C10.2516 22.3264 10.3683 22.3777 10.499 22.3777H11.507C11.6376 22.3777 11.7543 22.3264 11.857 22.2237C11.9596 22.1211 12.0063 22.0044 11.997 21.8737ZM11.997 18.8777V17.8697C11.997 17.7391 11.9503 17.6224 11.857 17.5197C11.7636 17.4171 11.647 17.3657 11.507 17.3657H10.499C10.3683 17.3657 10.2516 17.4171 10.149 17.5197C10.0463 17.6224 9.99498 17.7391 9.99498 17.8697V18.8777C9.99498 19.0084 10.0463 19.1251 10.149 19.2277C10.2516 19.3304 10.3683 19.3771 10.499 19.3677H11.507C11.6376 19.3677 11.7543 19.3211 11.857 19.2277C11.9596 19.1344 12.0063 19.0177 11.997 18.8777ZM11.997 15.8677V14.8737C11.997 14.7337 11.9503 14.6171 11.857 14.5237C11.7636 14.4304 11.647 14.3791 11.507 14.3697H10.499C10.3683 14.3697 10.2516 14.4211 10.149 14.5237C10.0463 14.6264 9.99498 14.7431 9.99498 14.8737V15.8677C9.99498 16.0077 10.0463 16.1244 10.149 16.2177C10.2516 16.3111 10.3683 16.3624 10.499 16.3717H11.507C11.6376 16.3717 11.7543 16.3204 11.857 16.2177C11.9596 16.1151 12.0063 15.9984 11.997 15.8677ZM20.005 21.8737V17.8697C20.005 17.7391 19.9536 17.6224 19.851 17.5197C19.7483 17.4171 19.6316 17.3657 19.501 17.3657H13.495C13.3643 17.3657 13.2476 17.4171 13.145 17.5197C13.0423 17.6224 12.9956 17.7391 13.005 17.8697V21.8737C13.005 22.0044 13.0516 22.1211 13.145 22.2237C13.2383 22.3264 13.355 22.3777 13.495 22.3777H19.501C19.641 22.3777 19.7576 22.3264 19.851 22.2237C19.9443 22.1211 19.9956 22.0044 20.005 21.8737ZM11.997 12.8717V11.8777C11.997 11.7377 11.9503 11.6164 11.857 11.5137C11.7636 11.4111 11.647 11.3644 11.507 11.3737H10.499C10.3683 11.3737 10.2516 11.4204 10.149 11.5137C10.0463 11.6071 9.99498 11.7284 9.99498 11.8777V12.8717C9.99498 13.0024 10.0463 13.1191 10.149 13.2217C10.2516 13.3244 10.3683 13.3757 10.499 13.3757H11.507C11.6376 13.3757 11.7543 13.3244 11.857 13.2217C11.9596 13.1191 12.0063 13.0024 11.997 12.8717ZM23.001 21.8737V20.8657C23.001 20.7351 22.9496 20.6184 22.847 20.5157C22.7443 20.4131 22.6276 20.3664 22.497 20.3757H21.503C21.363 20.3757 21.2463 20.4224 21.153 20.5157C21.0596 20.6091 21.0083 20.7257 20.999 20.8657V21.8737C20.999 22.0044 21.0503 22.1211 21.153 22.2237C21.2556 22.3264 21.3723 22.3777 21.503 22.3777H22.497C22.637 22.3777 22.7536 22.3264 22.847 22.2237C22.9403 22.1211 22.9916 22.0044 23.001 21.8737ZM20.005 15.8677V11.8777C20.005 11.7377 19.9536 11.6164 19.851 11.5137C19.7483 11.4111 19.6316 11.3644 19.501 11.3737H13.495C13.3643 11.3737 13.2476 11.4204 13.145 11.5137C13.0423 11.6071 12.9956 11.7284 13.005 11.8777V15.8677C13.005 16.0077 13.0516 16.1244 13.145 16.2177C13.2383 16.3111 13.355 16.3624 13.495 16.3717H19.501C19.641 16.3717 19.7576 16.3204 19.851 16.2177C19.9443 16.1151 19.9956 15.9984 20.005 15.8677ZM23.001 18.8777V17.8697C23.001 17.7391 22.9496 17.6224 22.847 17.5197C22.7443 17.4171 22.6276 17.3657 22.497 17.3657H21.503C21.363 17.3657 21.2463 17.4171 21.153 17.5197C21.0596 17.6224 21.0083 17.7391 20.999 17.8697V18.8777C20.999 19.0084 21.0503 19.1251 21.153 19.2277C21.2556 19.3304 21.3723 19.3771 21.503 19.3677H22.497C22.637 19.3677 22.7536 19.3211 22.847 19.2277C22.9403 19.1344 22.9916 19.0177 23.001 18.8777ZM23.001 15.8677V14.8737C23.001 14.7337 22.9496 14.6171 22.847 14.5237C22.7443 14.4304 22.6276 14.3791 22.497 14.3697H21.503C21.363 14.3697 21.2463 14.4211 21.153 14.5237C21.0596 14.6264 21.0083 14.7431 20.999 14.8737V15.8677C20.999 16.0077 21.0503 16.1244 21.153 16.2177C21.2556 16.3111 21.3723 16.3624 21.503 16.3717H22.497C22.637 16.3717 22.7536 16.3204 22.847 16.2177C22.9403 16.1151 22.9916 15.9984 23.001 15.8677ZM23.001 12.8717V11.8777C23.001 11.7377 22.9496 11.6164 22.847 11.5137C22.7443 11.4111 22.6276 11.3644 22.497 11.3737H21.503C21.363 11.3737 21.2463 11.4204 21.153 11.5137C21.0596 11.6071 21.0083 11.7284 20.999 11.8777V12.8717C20.999 13.0024 21.0503 13.1191 21.153 13.2217C21.2556 13.3244 21.3723 13.3757 21.503 13.3757H22.497C22.637 13.3757 22.7536 13.3244 22.847 13.2217C22.9403 13.1191 22.9916 13.0024 23.001 12.8717ZM23.995 11.6257V22.1257C23.995 22.4711 23.8736 22.7651 23.631 23.0077C23.3883 23.2504 23.0943 23.3717 22.749 23.3717H10.247C9.91098 23.3717 9.61698 23.2504 9.36498 23.0077C9.11298 22.7651 8.99164 22.4711 9.00098 22.1257V11.6257C9.00098 11.2804 9.12231 10.9864 9.36498 10.7437C9.60764 10.5011 9.90164 10.3751 10.247 10.3657H22.749C23.0943 10.3657 23.3883 10.4917 23.631 10.7437C23.8736 10.9957 23.995 11.2897 23.995 11.6257Z" fill="white"/>
</svg>
