<svg width="41" height="41" viewBox="0 0 41 41" fill="none" xmlns="http://www.w3.org/2000/svg">
<path d="M22.9093 21.07L25.7993 18.248L21.8043 17.67L20.0023 14.049L18.2173 17.67L14.2053 18.248L17.1123 21.07L16.4153 25.065L20.0023 23.178L23.5893 25.065L22.9093 21.07ZM27.9073 17.687C27.9073 17.823 27.8223 17.976 27.6523 18.146L24.2183 21.495L25.0343 26.238V26.442C25.0343 26.7593 24.9039 26.918 24.6433 26.918C24.5299 26.918 24.4053 26.8783 24.2693 26.799L20.0023 24.555L15.7523 26.799C15.6163 26.8783 15.4859 26.918 15.3613 26.918C15.2366 26.918 15.1403 26.867 15.0723 26.765C15.0043 26.663 14.9703 26.5553 14.9703 26.442C14.9703 26.3967 14.9759 26.3287 14.9873 26.238L15.8033 21.495L12.3523 18.146C12.1936 17.976 12.1143 17.823 12.1143 17.687C12.1143 17.449 12.2899 17.3017 12.6413 17.245L17.4013 16.565L19.5433 12.247C19.6679 11.9863 19.8209 11.856 20.0023 11.856C20.1836 11.856 20.3423 11.9863 20.4783 12.247L22.6033 16.565L27.3633 17.245C27.7259 17.3017 27.9073 17.449 27.9073 17.687Z" fill="white"/>
</svg>
