<svg width="41" height="41" viewBox="0 0 41 41" fill="none" xmlns="http://www.w3.org/2000/svg">
<path d="M23.7244 19.5953C23.7244 18.3593 23.2864 17.3033 22.4104 16.4273C21.5344 15.5513 20.4724 15.1073 19.2244 15.0953C17.9764 15.0833 16.9144 15.5273 16.0384 16.4273C15.1624 17.3273 14.7244 18.3833 14.7244 19.5953C14.7244 20.8073 15.1624 21.8693 16.0384 22.7813C16.9144 23.6933 17.9764 24.1313 19.2244 24.0953C20.4724 24.0593 21.5344 23.6213 22.4104 22.7813C23.2864 21.9413 23.7244 20.8793 23.7244 19.5953ZM28.8724 27.9653C28.8724 28.3133 28.7404 28.6133 28.4764 28.8653C28.2124 29.1173 27.9064 29.2433 27.5584 29.2433C27.2104 29.2433 26.9164 29.1173 26.6764 28.8653L23.2384 25.4273C22.0384 26.2553 20.7004 26.6693 19.2244 26.6693C18.2644 26.6693 17.3464 26.4833 16.4704 26.1113C15.5944 25.7393 14.8444 25.2353 14.2204 24.5993C13.5964 23.9633 13.0924 23.2133 12.7084 22.3493C12.3244 21.4853 12.1384 20.5673 12.1504 19.5953C12.1624 18.6233 12.3484 17.7113 12.7084 16.8593C13.0684 16.0073 13.5724 15.2513 14.2204 14.5913C14.8684 13.9313 15.6184 13.4273 16.4704 13.0793C17.3224 12.7313 18.2404 12.5453 19.2244 12.5213C20.2084 12.4973 21.1264 12.6833 21.9784 13.0793C22.8304 13.4753 23.5804 13.9793 24.2284 14.5913C24.8764 15.2033 25.3804 15.9593 25.7404 16.8593C26.1004 17.7593 26.2864 18.6713 26.2984 19.5953C26.2984 21.0713 25.8844 22.4093 25.0564 23.6093L28.4944 27.0473C28.7464 27.2993 28.8724 27.6053 28.8724 27.9653Z" fill="white"/>
</svg>
