<svg width="41" height="41" viewBox="0 0 41 41" fill="none" xmlns="http://www.w3.org/2000/svg">
<path d="M23.0453 19.438C23.0453 18.2707 22.6316 17.2733 21.8043 16.446C20.9769 15.6187 19.9739 15.1993 18.7953 15.188C17.6166 15.1767 16.6136 15.596 15.7863 16.446C14.9589 17.296 14.5453 18.2933 14.5453 19.438C14.5453 20.5827 14.9589 21.5857 15.7863 22.447C16.6136 23.3083 17.6166 23.722 18.7953 23.688C19.9739 23.654 20.9769 23.2403 21.8043 22.447C22.6316 21.6537 23.0453 20.6507 23.0453 19.438ZM27.9073 27.343C27.9073 27.6717 27.7826 27.955 27.5333 28.193C27.2839 28.431 26.9949 28.55 26.6663 28.55C26.3376 28.55 26.0599 28.431 25.8333 28.193L22.5863 24.946C21.4529 25.728 20.1893 26.119 18.7953 26.119C17.8886 26.119 17.0216 25.9433 16.1943 25.592C15.3669 25.2407 14.6586 24.7647 14.0693 24.164C13.4799 23.5633 13.0039 22.855 12.6413 22.039C12.2786 21.223 12.1029 20.356 12.1143 19.438C12.1256 18.52 12.3013 17.6587 12.6413 16.854C12.9813 16.0493 13.4573 15.3353 14.0693 14.712C14.6813 14.0887 15.3896 13.6127 16.1943 13.284C16.9989 12.9553 17.8659 12.7797 18.7953 12.757C19.7246 12.7343 20.5916 12.91 21.3963 13.284C22.2009 13.658 22.9093 14.134 23.5213 14.712C24.1333 15.29 24.6093 16.004 24.9493 16.854C25.2893 17.704 25.4649 18.5653 25.4763 19.438C25.4763 20.832 25.0853 22.0957 24.3033 23.229L27.5503 26.476C27.7883 26.714 27.9073 27.003 27.9073 27.343Z" fill="white"/>
</svg>
