<svg width="33" height="33" viewBox="0 0 33 33" fill="none" xmlns="http://www.w3.org/2000/svg">
<path d="M19.0079 15.8677C19.0079 14.9064 18.6672 14.0851 17.9859 13.4037C17.3045 12.7224 16.4785 12.3771 15.5079 12.3677C14.5372 12.3584 13.7112 12.7037 13.0299 13.4037C12.3485 14.1037 12.0079 14.9251 12.0079 15.8677C12.0079 16.8104 12.3485 17.6364 13.0299 18.3457C13.7112 19.0551 14.5372 19.3957 15.5079 19.3677C16.4785 19.3397 17.3045 18.9991 17.9859 18.3457C18.6672 17.6924 19.0079 16.8664 19.0079 15.8677ZM23.0119 22.3777C23.0119 22.6484 22.9092 22.8817 22.7039 23.0777C22.4985 23.2737 22.2605 23.3717 21.9899 23.3717C21.7192 23.3717 21.4905 23.2737 21.3039 23.0777L18.6299 20.4037C17.6965 21.0477 16.6559 21.3697 15.5079 21.3697C14.7612 21.3697 14.0472 21.2251 13.3659 20.9357C12.6845 20.6464 12.1012 20.2544 11.6159 19.7597C11.1305 19.2651 10.7385 18.6817 10.4399 18.0097C10.1412 17.3377 9.99653 16.6237 10.0059 15.8677C10.0152 15.1117 10.1599 14.4024 10.4399 13.7397C10.7199 13.0771 11.1119 12.4891 11.6159 11.9757C12.1199 11.4624 12.7032 11.0704 13.3659 10.7997C14.0285 10.5291 14.7425 10.3844 15.5079 10.3657C16.2732 10.3471 16.9872 10.4917 17.6499 10.7997C18.3125 11.1077 18.8959 11.4997 19.3999 11.9757C19.9039 12.4517 20.2959 13.0397 20.5759 13.7397C20.8559 14.4397 21.0005 15.1491 21.0099 15.8677C21.0099 17.0157 20.6879 18.0564 20.0439 18.9897L22.7179 21.6637C22.9139 21.8597 23.0119 22.0977 23.0119 22.3777Z" fill="white"/>
</svg>
